# xmcd
#
# Track frame offsets:
#	182
#	16445
#	34872
#	48680
#	63887
#	79242
#	89957
#	109992
#	132880
#	144267
#
# Disc length: 2130
#
# Revision: 5
# Processed by: cddbd v1.5.1PL0 Copyright (c) Steve Scherf et al.
# Submitted via: audiograbber 1.83.01
# Normalized: r4:DSETVAR1
#
DISCID=8d08500a
DTITLE=Various Artist - Country Love Songs  - Vo. 4
DYEAR=2000
DGENRE=Country
TTITLE0=Michael Peterson - From Here to Eternity
TTITLE1=Little Texas - My Love
TTITLE2=Dwight Yoakam - Near You
TTITLE3=Chad Brock - Yes!
TTITLE4=Travis Tritt - More Than You'll Ever Know
TTITLE5=The Lynns - This Must Be Love
TTITLE6=Paul Brandt - It's A Beautiful Thing
TTITLE7=Faith Hill - I Love You
TTITLE8=Kevin Sharp - If You Love Somebody
TTITLE9=Daryle Singletary - Amen Kind Of Love
EXTD=ID3G:   2
EXTT0=Michael Peterson 
EXTT1=Little Texas
EXTT2=Dwight Yoakam
EXTT3=Chad Brock
EXTT4=Travis Tritt
EXTT5=The Lynns
EXTT6=Paul Brandt
EXTT7=Faith Hill
EXTT8=Kevin Sharp
EXTT9=Daryle Singletary
PLAYORDER=
